<mxfile host="app.diagrams.net" agent="Mozilla/5.0 (Windows NT 10.0; Win64; x64; rv:135.0) Gecko/20100101 Firefox/135.0" version="26.0.16">
  <diagram name="Page-1" id="k5dUX5pplOjQUhDboOMS">
    <mxGraphModel dx="1333" dy="1871" grid="1" gridSize="10" guides="1" tooltips="1" connect="1" arrows="1" fold="1" page="1" pageScale="1" pageWidth="850" pageHeight="1100" math="0" shadow="0">
      <root>
        <mxCell id="0" />
        <mxCell id="1" parent="0" />
        <mxCell id="G7iFXVLy7NBETYlN1xpA-8" value="" style="rounded=0;whiteSpace=wrap;html=1;fillColor=#f5f5f5;movable=1;resizable=1;rotatable=1;deletable=1;editable=1;locked=0;connectable=1;strokeWidth=3;fontColor=#333333;strokeColor=#666666;" vertex="1" parent="1">
          <mxGeometry x="80" y="-30" width="640" height="560" as="geometry" />
        </mxCell>
        <mxCell id="G7iFXVLy7NBETYlN1xpA-1" value="&lt;font style=&quot;font-size: 20px;&quot;&gt;Driver&lt;/font&gt;" style="rounded=0;whiteSpace=wrap;html=1;fillColor=#f8cecc;strokeColor=#b85450;" vertex="1" parent="1">
          <mxGeometry x="200" y="350" width="400" height="120" as="geometry" />
        </mxCell>
        <mxCell id="G7iFXVLy7NBETYlN1xpA-3" value="" style="endArrow=none;dashed=1;html=1;rounded=0;strokeWidth=2;" edge="1" parent="1">
          <mxGeometry width="50" height="50" relative="1" as="geometry">
            <mxPoint x="85" y="270" as="sourcePoint" />
            <mxPoint x="715" y="270" as="targetPoint" />
          </mxGeometry>
        </mxCell>
        <mxCell id="G7iFXVLy7NBETYlN1xpA-5" value="&lt;font style=&quot;font-size: 16px;&quot;&gt;Kernel Mode&lt;/font&gt;" style="text;html=1;align=center;verticalAlign=middle;whiteSpace=wrap;rounded=0;" vertex="1" parent="1">
          <mxGeometry x="90" y="270" width="100" height="30" as="geometry" />
        </mxCell>
        <mxCell id="G7iFXVLy7NBETYlN1xpA-7" value="&lt;font style=&quot;font-size: 16px;&quot;&gt;User Mode&lt;/font&gt;" style="text;html=1;align=center;verticalAlign=middle;whiteSpace=wrap;rounded=0;" vertex="1" parent="1">
          <mxGeometry x="85" y="240" width="100" height="30" as="geometry" />
        </mxCell>
        <mxCell id="G7iFXVLy7NBETYlN1xpA-12" value="&lt;font style=&quot;font-size: 20px;&quot;&gt;Server&lt;/font&gt;" style="rounded=0;whiteSpace=wrap;html=1;fillColor=#dae8fc;strokeColor=#6c8ebf;" vertex="1" parent="1">
          <mxGeometry x="230" y="50" width="340" height="120" as="geometry" />
        </mxCell>
        <mxCell id="G7iFXVLy7NBETYlN1xpA-13" value="&lt;font style=&quot;font-size: 13px;&quot;&gt;Socket&lt;/font&gt;" style="rounded=0;whiteSpace=wrap;html=1;fillColor=#e1d5e7;strokeColor=#9673a6;" vertex="1" parent="1">
          <mxGeometry x="270" y="30" width="100" height="20" as="geometry" />
        </mxCell>
        <mxCell id="G7iFXVLy7NBETYlN1xpA-14" value="" style="endArrow=classic;startArrow=classic;html=1;rounded=0;strokeWidth=2;exitX=0.5;exitY=0;exitDx=0;exitDy=0;" edge="1" parent="1" source="G7iFXVLy7NBETYlN1xpA-1">
          <mxGeometry width="50" height="50" relative="1" as="geometry">
            <mxPoint x="400" y="370" as="sourcePoint" />
            <mxPoint x="400" y="170" as="targetPoint" />
          </mxGeometry>
        </mxCell>
        <mxCell id="G7iFXVLy7NBETYlN1xpA-15" value="&lt;font style=&quot;font-size: 16px;&quot;&gt;IOCTL&lt;/font&gt;" style="text;html=1;align=center;verticalAlign=middle;whiteSpace=wrap;rounded=0;" vertex="1" parent="1">
          <mxGeometry x="400" y="200" width="60" height="30" as="geometry" />
        </mxCell>
        <mxCell id="G7iFXVLy7NBETYlN1xpA-18" value="&lt;font style=&quot;font-size: 13px;&quot;&gt;IOCTL Handler&lt;/font&gt;" style="rounded=0;whiteSpace=wrap;html=1;fillColor=#fff2cc;strokeColor=#d6b656;" vertex="1" parent="1">
          <mxGeometry x="220" y="370" width="90" height="30" as="geometry" />
        </mxCell>
        <mxCell id="G7iFXVLy7NBETYlN1xpA-19" value="&lt;font style=&quot;font-size: 13px;&quot;&gt;Filters&lt;/font&gt;" style="rounded=0;whiteSpace=wrap;html=1;fillColor=#fff2cc;strokeColor=#d6b656;" vertex="1" parent="1">
          <mxGeometry x="220" y="420" width="90" height="30" as="geometry" />
        </mxCell>
        <mxCell id="G7iFXVLy7NBETYlN1xpA-21" value="&lt;font style=&quot;font-size: 13px;&quot;&gt;Request Handler&lt;/font&gt;" style="rounded=0;whiteSpace=wrap;html=1;fillColor=#d5e8d4;strokeColor=#82b366;" vertex="1" parent="1">
          <mxGeometry x="240" y="120" width="100" height="30" as="geometry" />
        </mxCell>
        <mxCell id="G7iFXVLy7NBETYlN1xpA-24" value="&lt;font style=&quot;font-size: 13px;&quot;&gt;Listener&lt;/font&gt;" style="rounded=0;whiteSpace=wrap;html=1;fillColor=#d5e8d4;strokeColor=#82b366;" vertex="1" parent="1">
          <mxGeometry x="240" y="70" width="100" height="30" as="geometry" />
        </mxCell>
        <mxCell id="G7iFXVLy7NBETYlN1xpA-25" value="" style="endArrow=none;dashed=1;html=1;rounded=0;exitX=0.5;exitY=0;exitDx=0;exitDy=0;entryX=0.485;entryY=1.022;entryDx=0;entryDy=0;entryPerimeter=0;" edge="1" parent="1" source="G7iFXVLy7NBETYlN1xpA-24" target="G7iFXVLy7NBETYlN1xpA-13">
          <mxGeometry width="50" height="50" relative="1" as="geometry">
            <mxPoint x="270" y="100" as="sourcePoint" />
            <mxPoint x="320" y="50" as="targetPoint" />
          </mxGeometry>
        </mxCell>
        <mxCell id="G7iFXVLy7NBETYlN1xpA-28" value="" style="endArrow=none;dashed=1;html=1;rounded=0;entryX=0.5;entryY=0;entryDx=0;entryDy=0;exitX=1;exitY=0.5;exitDx=0;exitDy=0;" edge="1" parent="1" source="G7iFXVLy7NBETYlN1xpA-18" target="G7iFXVLy7NBETYlN1xpA-1">
          <mxGeometry width="50" height="50" relative="1" as="geometry">
            <mxPoint x="370" y="320" as="sourcePoint" />
            <mxPoint x="420" y="270" as="targetPoint" />
          </mxGeometry>
        </mxCell>
        <mxCell id="G7iFXVLy7NBETYlN1xpA-29" value="" style="endArrow=none;dashed=1;html=1;rounded=0;entryX=0.5;entryY=1;entryDx=0;entryDy=0;exitX=0.5;exitY=1;exitDx=0;exitDy=0;" edge="1" parent="1" source="G7iFXVLy7NBETYlN1xpA-12" target="G7iFXVLy7NBETYlN1xpA-21">
          <mxGeometry width="50" height="50" relative="1" as="geometry">
            <mxPoint x="370" y="230" as="sourcePoint" />
            <mxPoint x="420" y="180" as="targetPoint" />
          </mxGeometry>
        </mxCell>
        <mxCell id="G7iFXVLy7NBETYlN1xpA-30" value="" style="endArrow=none;dashed=1;html=1;rounded=0;" edge="1" parent="1" target="G7iFXVLy7NBETYlN1xpA-12">
          <mxGeometry width="50" height="50" relative="1" as="geometry">
            <mxPoint x="280" y="170" as="sourcePoint" />
            <mxPoint x="330" y="120" as="targetPoint" />
          </mxGeometry>
        </mxCell>
        <mxCell id="G7iFXVLy7NBETYlN1xpA-31" value="" style="endArrow=none;dashed=1;html=1;rounded=0;entryX=0.5;entryY=0;entryDx=0;entryDy=0;exitX=0.5;exitY=1;exitDx=0;exitDy=0;" edge="1" parent="1" source="G7iFXVLy7NBETYlN1xpA-24" target="G7iFXVLy7NBETYlN1xpA-21">
          <mxGeometry width="50" height="50" relative="1" as="geometry">
            <mxPoint x="300" y="200" as="sourcePoint" />
            <mxPoint x="350" y="150" as="targetPoint" />
          </mxGeometry>
        </mxCell>
        <mxCell id="G7iFXVLy7NBETYlN1xpA-33" value="&lt;font style=&quot;font-size: 20px;&quot;&gt;Infected System&lt;/font&gt;" style="text;html=1;align=center;verticalAlign=middle;whiteSpace=wrap;rounded=0;" vertex="1" parent="1">
          <mxGeometry x="560" y="-70" width="160" height="30" as="geometry" />
        </mxCell>
        <mxCell id="G7iFXVLy7NBETYlN1xpA-34" value="" style="rounded=0;whiteSpace=wrap;html=1;fillColor=#f5f5f5;strokeWidth=3;fontColor=#333333;strokeColor=#666666;" vertex="1" parent="1">
          <mxGeometry x="90" y="-430" width="430" height="210" as="geometry" />
        </mxCell>
        <mxCell id="G7iFXVLy7NBETYlN1xpA-37" value="&lt;font style=&quot;font-size: 20px;&quot;&gt;Remote Controller&lt;/font&gt;" style="text;html=1;align=center;verticalAlign=middle;whiteSpace=wrap;rounded=0;" vertex="1" parent="1">
          <mxGeometry x="350" y="-470" width="177" height="30" as="geometry" />
        </mxCell>
        <mxCell id="G7iFXVLy7NBETYlN1xpA-38" value="&lt;font style=&quot;font-size: 20px;&quot;&gt;Panel&lt;/font&gt;" style="rounded=0;whiteSpace=wrap;html=1;fillColor=#fff2cc;strokeColor=#d6b656;" vertex="1" parent="1">
          <mxGeometry x="180" y="-350" width="200" height="80" as="geometry" />
        </mxCell>
        <mxCell id="G7iFXVLy7NBETYlN1xpA-40" value="" style="endArrow=classic;startArrow=classic;html=1;rounded=0;strokeWidth=2;entryX=0.5;entryY=1;entryDx=0;entryDy=0;exitX=0.5;exitY=0;exitDx=0;exitDy=0;" edge="1" parent="1" source="G7iFXVLy7NBETYlN1xpA-13" target="G7iFXVLy7NBETYlN1xpA-43">
          <mxGeometry width="50" height="50" relative="1" as="geometry">
            <mxPoint x="320" y="50" as="sourcePoint" />
            <mxPoint x="280" y="-240" as="targetPoint" />
            <Array as="points">
              <mxPoint x="320" y="-150" />
              <mxPoint x="280" y="-150" />
            </Array>
          </mxGeometry>
        </mxCell>
        <mxCell id="G7iFXVLy7NBETYlN1xpA-41" value="&lt;font style=&quot;font-size: 16px;&quot;&gt;HTTP traffic with encrypted content&lt;/font&gt;" style="text;html=1;align=center;verticalAlign=middle;whiteSpace=wrap;rounded=0;" vertex="1" parent="1">
          <mxGeometry x="160" y="-150" width="160" height="60" as="geometry" />
        </mxCell>
        <mxCell id="G7iFXVLy7NBETYlN1xpA-43" value="JS Fetch()" style="rounded=0;whiteSpace=wrap;html=1;fillColor=#e1d5e7;strokeColor=#9673a6;" vertex="1" parent="1">
          <mxGeometry x="230" y="-270" width="100" height="20" as="geometry" />
        </mxCell>
      </root>
    </mxGraphModel>
  </diagram>
</mxfile>
